<mxfile host="app.diagrams.net" modified="2023-11-16T06:11:21.513Z" agent="Mozilla/5.0 (Macintosh; Intel Mac OS X 10_15_7) AppleWebKit/537.36 (KHTML, like Gecko) Chrome/119.0.0.0 Safari/537.36" etag="szmWIuvcoSXGO1kkQA58" version="22.1.2" type="github">
  <diagram name="Page-1" id="822b0af5-4adb-64df-f703-e8dfc1f81529">
    <mxGraphModel dx="1434" dy="940" grid="0" gridSize="10" guides="1" tooltips="1" connect="1" arrows="1" fold="1" page="1" pageScale="1" pageWidth="1100" pageHeight="850" background="#FFF2CC" math="0" shadow="0">
      <root>
        <mxCell id="0" />
        <mxCell id="1" parent="0" />
        <mxCell id="NuI87_JJMGOtZgtVZiwR-3" value="" style="whiteSpace=wrap;html=1;aspect=fixed;rounded=1;sketch=1;curveFitting=1;jiggle=2;labelBackgroundColor=none;fillColor=#FFE45E;strokeColor=#FF6392;fontColor=#5AA9E6;" vertex="1" parent="1">
          <mxGeometry x="960.8" y="320" width="80" height="80" as="geometry" />
        </mxCell>
        <mxCell id="NuI87_JJMGOtZgtVZiwR-4" value="" style="pointerEvents=1;shadow=0;dashed=0;html=1;strokeColor=#b85450;fillColor=#f8cecc;labelPosition=center;verticalLabelPosition=bottom;verticalAlign=top;align=center;outlineConnect=0;shape=mxgraph.veeam.laptop;rounded=1;sketch=1;curveFitting=1;jiggle=2;labelBackgroundColor=none;" vertex="1" parent="1">
          <mxGeometry x="971.6" y="338" width="58.4" height="44" as="geometry" />
        </mxCell>
        <mxCell id="NuI87_JJMGOtZgtVZiwR-5" value="&lt;b&gt;&lt;font face=&quot;Comic Sans MS&quot;&gt;Attacker Machine(Pupy)&lt;/font&gt;&lt;/b&gt;" style="text;html=1;strokeColor=none;fillColor=none;align=center;verticalAlign=middle;whiteSpace=wrap;rounded=1;sketch=1;curveFitting=1;jiggle=2;labelBackgroundColor=none;fontColor=#5AA9E6;" vertex="1" parent="1">
          <mxGeometry x="971.5999999999999" y="410" width="60" height="30" as="geometry" />
        </mxCell>
        <mxCell id="NuI87_JJMGOtZgtVZiwR-6" value="" style="image;aspect=fixed;perimeter=ellipsePerimeter;html=1;align=center;shadow=0;dashed=0;spacingTop=3;image=img/lib/active_directory/windows_server_2.svg;rounded=1;sketch=1;curveFitting=1;jiggle=2;labelBackgroundColor=none;fillColor=#FFE45E;strokeColor=#FF6392;fontColor=#5AA9E6;" vertex="1" parent="1">
          <mxGeometry x="620" y="140" width="110" height="137.5" as="geometry" />
        </mxCell>
        <mxCell id="NuI87_JJMGOtZgtVZiwR-7" value="" style="image;aspect=fixed;perimeter=ellipsePerimeter;html=1;align=center;shadow=0;dashed=0;spacingTop=3;image=img/lib/active_directory/windows_server_2.svg;rounded=1;sketch=1;curveFitting=1;jiggle=2;labelBackgroundColor=none;fillColor=#FFE45E;strokeColor=#FF6392;fontColor=#5AA9E6;" vertex="1" parent="1">
          <mxGeometry x="365" y="140" width="110" height="137.5" as="geometry" />
        </mxCell>
        <mxCell id="NuI87_JJMGOtZgtVZiwR-8" value="&lt;b&gt;&lt;font style=&quot;font-size: 14px;&quot;&gt;&lt;font face=&quot;Comic Sans MS&quot;&gt;Domain Controller&lt;br&gt;avengershq.local&lt;/font&gt;&lt;br&gt;&lt;/font&gt;&lt;/b&gt;" style="text;html=1;strokeColor=none;fillColor=none;align=center;verticalAlign=middle;whiteSpace=wrap;rounded=1;sketch=1;curveFitting=1;jiggle=2;labelBackgroundColor=none;fontColor=#5AA9E6;" vertex="1" parent="1">
          <mxGeometry x="615" y="90" width="135" height="30" as="geometry" />
        </mxCell>
        <mxCell id="NuI87_JJMGOtZgtVZiwR-10" value="&lt;b&gt;&lt;font style=&quot;font-size: 14px;&quot;&gt;&lt;font face=&quot;Comic Sans MS&quot;&gt;Active Directory Certificate Server&lt;br&gt;hydralabs.local&lt;/font&gt;&lt;br&gt;&lt;/font&gt;&lt;/b&gt;" style="text;html=1;strokeColor=none;fillColor=none;align=center;verticalAlign=middle;whiteSpace=wrap;rounded=1;sketch=1;curveFitting=1;jiggle=2;labelBackgroundColor=none;fontColor=#5AA9E6;" vertex="1" parent="1">
          <mxGeometry x="350" y="90" width="140" height="30" as="geometry" />
        </mxCell>
        <mxCell id="NuI87_JJMGOtZgtVZiwR-12" value="" style="endArrow=classic;html=1;rounded=1;sketch=1;curveFitting=1;jiggle=2;labelBackgroundColor=none;strokeColor=#FF6392;fontColor=default;" edge="1" parent="1">
          <mxGeometry width="50" height="50" relative="1" as="geometry">
            <mxPoint x="430" y="210" as="sourcePoint" />
            <mxPoint x="620" y="210" as="targetPoint" />
          </mxGeometry>
        </mxCell>
        <mxCell id="NuI87_JJMGOtZgtVZiwR-13" value="&lt;b&gt;&lt;font style=&quot;font-size: 14px;&quot; face=&quot;Comic Sans MS&quot;&gt;External Trust&lt;/font&gt;&lt;/b&gt;" style="text;html=1;strokeColor=none;fillColor=none;align=center;verticalAlign=middle;whiteSpace=wrap;rounded=1;sketch=1;curveFitting=1;jiggle=2;labelBackgroundColor=none;fontColor=#5AA9E6;" vertex="1" parent="1">
          <mxGeometry x="459" y="170" width="111" height="30" as="geometry" />
        </mxCell>
        <mxCell id="NuI87_JJMGOtZgtVZiwR-14" value="" style="image;aspect=fixed;html=1;points=[];align=center;fontSize=12;image=img/lib/mscae/VirtualMachineWindows.svg;rounded=1;sketch=1;curveFitting=1;jiggle=2;labelBackgroundColor=none;fillColor=#FFE45E;strokeColor=#FF6392;fontColor=#5AA9E6;" vertex="1" parent="1">
          <mxGeometry x="640" y="520" width="50" height="46" as="geometry" />
        </mxCell>
        <mxCell id="NuI87_JJMGOtZgtVZiwR-15" value="" style="image;aspect=fixed;html=1;points=[];align=center;fontSize=12;image=img/lib/mscae/VM_Windows_Non_Azure.svg;rounded=1;sketch=1;curveFitting=1;jiggle=2;labelBackgroundColor=none;fillColor=#FFE45E;strokeColor=#FF6392;fontColor=#5AA9E6;" vertex="1" parent="1">
          <mxGeometry x="640" y="354" width="50" height="46" as="geometry" />
        </mxCell>
        <mxCell id="NuI87_JJMGOtZgtVZiwR-16" value="&lt;b&gt;&lt;font face=&quot;Comic Sans MS&quot; style=&quot;font-size: 14px;&quot;&gt;Windows 11 Client&lt;br&gt;Real Time Sample Submission disabled&lt;/font&gt;&lt;br&gt;&lt;/b&gt;" style="text;html=1;strokeColor=none;fillColor=none;align=center;verticalAlign=middle;whiteSpace=wrap;rounded=1;sketch=1;curveFitting=1;jiggle=2;labelBackgroundColor=none;fontColor=#5AA9E6;" vertex="1" parent="1">
          <mxGeometry x="517" y="410" width="268" height="30" as="geometry" />
        </mxCell>
        <mxCell id="NuI87_JJMGOtZgtVZiwR-17" value="&lt;b&gt;&lt;font face=&quot;Comic Sans MS&quot; style=&quot;font-size: 14px;&quot;&gt;Windows 10 Client&lt;br&gt;Real Time Sample Submission disabled&lt;/font&gt;&lt;br&gt;&lt;/b&gt;" style="text;html=1;strokeColor=none;fillColor=none;align=center;verticalAlign=middle;whiteSpace=wrap;rounded=1;sketch=1;curveFitting=1;jiggle=2;labelBackgroundColor=none;fontColor=#5AA9E6;" vertex="1" parent="1">
          <mxGeometry x="522" y="580" width="265.5" height="30" as="geometry" />
        </mxCell>
        <mxCell id="NuI87_JJMGOtZgtVZiwR-18" value="" style="endArrow=none;html=1;rounded=1;sketch=1;curveFitting=1;jiggle=2;labelBackgroundColor=none;strokeColor=#FF6392;fontColor=default;" edge="1" parent="1">
          <mxGeometry width="50" height="50" relative="1" as="geometry">
            <mxPoint x="840" y="600" as="sourcePoint" />
            <mxPoint x="840" y="160" as="targetPoint" />
          </mxGeometry>
        </mxCell>
        <mxCell id="NuI87_JJMGOtZgtVZiwR-19" value="" style="endArrow=none;html=1;rounded=1;sketch=1;curveFitting=1;jiggle=2;labelBackgroundColor=none;strokeColor=#FF6392;fontColor=default;" edge="1" parent="1">
          <mxGeometry width="50" height="50" relative="1" as="geometry">
            <mxPoint x="690" y="210" as="sourcePoint" />
            <mxPoint x="840" y="210" as="targetPoint" />
          </mxGeometry>
        </mxCell>
        <mxCell id="NuI87_JJMGOtZgtVZiwR-20" value="" style="endArrow=none;html=1;rounded=1;sketch=1;curveFitting=1;jiggle=2;labelBackgroundColor=none;strokeColor=#FF6392;fontColor=default;" edge="1" parent="1">
          <mxGeometry width="50" height="50" relative="1" as="geometry">
            <mxPoint x="690" y="542.5" as="sourcePoint" />
            <mxPoint x="840" y="542.5" as="targetPoint" />
          </mxGeometry>
        </mxCell>
        <mxCell id="NuI87_JJMGOtZgtVZiwR-21" value="" style="endArrow=none;html=1;rounded=1;sketch=1;curveFitting=1;jiggle=2;labelBackgroundColor=none;strokeColor=#FF6392;fontColor=default;" edge="1" parent="1">
          <mxGeometry width="50" height="50" relative="1" as="geometry">
            <mxPoint x="690" y="370" as="sourcePoint" />
            <mxPoint x="840" y="370" as="targetPoint" />
            <Array as="points">
              <mxPoint x="760" y="370" />
            </Array>
          </mxGeometry>
        </mxCell>
        <mxCell id="NuI87_JJMGOtZgtVZiwR-22" value="&lt;font face=&quot;Comic Sans MS&quot; style=&quot;font-size: 12px;&quot;&gt;192.168.56.10&lt;/font&gt;" style="text;html=1;strokeColor=none;fillColor=none;align=center;verticalAlign=middle;whiteSpace=wrap;rounded=1;sketch=1;curveFitting=1;jiggle=2;labelBackgroundColor=none;fontColor=#5AA9E6;" vertex="1" parent="1">
          <mxGeometry x="700" y="180" width="60" height="30" as="geometry" />
        </mxCell>
        <mxCell id="NuI87_JJMGOtZgtVZiwR-23" value="&lt;b&gt;&lt;font face=&quot;Comic Sans MS&quot;&gt;192.168.56.23&lt;/font&gt;&lt;/b&gt;" style="text;html=1;strokeColor=none;fillColor=none;align=center;verticalAlign=middle;whiteSpace=wrap;rounded=1;sketch=1;curveFitting=1;jiggle=2;labelBackgroundColor=none;fontColor=#5AA9E6;" vertex="1" parent="1">
          <mxGeometry x="290" y="170" width="60" height="30" as="geometry" />
        </mxCell>
        <mxCell id="NuI87_JJMGOtZgtVZiwR-24" value="&lt;font face=&quot;Comic Sans MS&quot;&gt;192.168.56.77&lt;/font&gt;" style="text;html=1;strokeColor=none;fillColor=none;align=center;verticalAlign=middle;whiteSpace=wrap;rounded=1;sketch=1;curveFitting=1;jiggle=2;labelBackgroundColor=none;fontColor=#5AA9E6;" vertex="1" parent="1">
          <mxGeometry x="710" y="510" width="60" height="30" as="geometry" />
        </mxCell>
        <mxCell id="NuI87_JJMGOtZgtVZiwR-25" value="&lt;font face=&quot;Comic Sans MS&quot;&gt;192.168.56.23&lt;/font&gt;" style="text;html=1;strokeColor=none;fillColor=none;align=center;verticalAlign=middle;whiteSpace=wrap;rounded=1;sketch=1;curveFitting=1;jiggle=2;labelBackgroundColor=none;fontColor=#5AA9E6;" vertex="1" parent="1">
          <mxGeometry x="710" y="338" width="60" height="30" as="geometry" />
        </mxCell>
        <mxCell id="NuI87_JJMGOtZgtVZiwR-27" value="" style="endArrow=none;html=1;rounded=1;sketch=1;curveFitting=1;jiggle=2;labelBackgroundColor=none;strokeColor=#FF6392;fontColor=default;" edge="1" parent="1">
          <mxGeometry width="50" height="50" relative="1" as="geometry">
            <mxPoint x="840" y="359.5" as="sourcePoint" />
            <mxPoint x="960.8" y="359.5" as="targetPoint" />
          </mxGeometry>
        </mxCell>
      </root>
    </mxGraphModel>
  </diagram>
</mxfile>
